<svg xmlns="http://www.w3.org/2000/svg" xmlns:xlink="http://www.w3.org/1999/xlink" width="1920" zoomAndPan="magnify" viewBox="0 0 1440 809.999993" height="1080" preserveAspectRatio="xMidYMid meet" version="1.2"><defs><clipPath id="355bb1b096"><path d="M 389 83 L 1050.960938 83 L 1050.960938 300.59375 L 389 300.59375 Z M 389 83 "/></clipPath><clipPath id="288237cb9d"><path d="M 388.730469 154 L 1050.960938 154 L 1050.960938 304 L 388.730469 304 Z M 388.730469 154 "/></clipPath><clipPath id="1c9a76ea32"><path d="M 388.730469 154 L 1050.960938 154 L 1050.960938 219 L 388.730469 219 Z M 388.730469 154 "/></clipPath><clipPath id="15ee96b51a"><path d="M 716 33.390625 L 731 33.390625 L 731 46 L 716 46 Z M 716 33.390625 "/></clipPath><clipPath id="8df6c60498"><path d="M 468 294 L 972 294 L 972 776.640625 L 468 776.640625 Z M 468 294 "/></clipPath></defs><g id="348fa98574"><g clip-rule="nonzero" clip-path="url(#355bb1b096)"><path style=" stroke:none;fill-rule:nonzero;fill:#7f8eaf;fill-opacity:1;" d="M 767.007812 299.652344 C 767.007812 299.652344 813.144531 299.984375 858.25 270.722656 C 858.25 270.722656 966.023438 262.203125 1004.332031 246.703125 C 1023.480469 238.949219 1049.246094 228.648438 1050.785156 213.390625 C 1051.546875 205.839844 1023.53125 182.808594 981.15625 166.015625 C 938.035156 148.9375 888.097656 139.667969 888.097656 139.667969 C 888.097656 139.667969 879.402344 83.238281 721.339844 83.875 C 551.40625 84.5625 557.800781 141.015625 557.800781 141.015625 C 557.800781 141.015625 382.765625 175.71875 389.335938 217.699219 C 395.902344 259.675781 577.082031 271.863281 577.082031 271.863281 C 577.082031 271.863281 626.304688 298.320312 661.023438 299.796875 C 695.746094 301.265625 767.007812 299.652344 767.007812 299.652344 "/></g><path style=" stroke:none;fill-rule:nonzero;fill:#97aac4;fill-opacity:1;" d="M 721.070312 83.875 C 551.136719 84.570312 557.535156 141.015625 557.535156 141.015625 C 557.535156 141.015625 575.867188 129.164062 712.203125 128.070312 C 848.550781 126.980469 887.824219 139.667969 887.824219 139.667969 C 887.824219 139.667969 887.589844 83.203125 721.070312 83.875 "/><g clip-rule="nonzero" clip-path="url(#288237cb9d)"><path style=" stroke:none;fill-rule:nonzero;fill:#6f7e98;fill-opacity:1;" d="M 1050.703125 213.390625 C 1051.003906 210.34375 1046.625 204.773438 1038.507812 198.113281 C 1023.242188 187.460938 989.769531 172.339844 918.019531 163.855469 C 809.910156 151.0625 641.875 151.945312 555.996094 162.496094 C 370.667969 185.257812 389.253906 217.699219 389.253906 217.699219 C 395.820312 259.675781 576.996094 271.863281 576.996094 271.863281 C 576.996094 271.863281 614.917969 306.851562 723.613281 303.5625 C 781.269531 301.824219 813.0625 299.984375 858.167969 270.722656 C 858.167969 270.722656 965.941406 262.203125 1004.246094 246.703125 C 1023.398438 238.949219 1049.164062 228.648438 1050.703125 213.390625 "/></g><g clip-rule="nonzero" clip-path="url(#1c9a76ea32)"><path style=" stroke:none;fill-rule:nonzero;fill:#b1c0d6;fill-opacity:1;" d="M 389.597656 218.125 C 393.316406 207.835938 418.203125 185.511719 556.269531 168.558594 C 642.15625 158.003906 810.191406 157.125 918.296875 169.910156 C 990.050781 178.398438 1023.523438 193.519531 1038.789062 204.167969 C 1044.777344 209.085938 1048.726562 213.398438 1050.261719 216.558594 C 1050.605469 215.527344 1050.847656 214.476562 1050.957031 213.390625 C 1051.257812 210.34375 1046.878906 204.773438 1038.761719 198.113281 C 1023.496094 187.460938 990.023438 172.339844 918.273438 163.855469 C 810.164062 151.0625 642.136719 151.945312 556.25 162.496094 C 370.921875 185.257812 389.5 217.699219 389.5 217.699219 L 389.597656 218.125 "/></g><path style=" stroke:none;fill-rule:nonzero;fill:#d7c33b;fill-opacity:1;" d="M 583.023438 135.09375 C 583.023438 135.09375 582.078125 117.523438 613.125 114.605469 C 644.175781 111.6875 647.875 129.65625 647.875 129.65625 C 647.875 129.65625 623.296875 130.898438 615.4375 131.613281 C 592.730469 133.675781 583.023438 135.09375 583.023438 135.09375 "/><path style=" stroke:none;fill-rule:nonzero;fill:#d7c33b;fill-opacity:1;" d="M 854.824219 133.988281 C 854.824219 133.988281 856.003906 116.117188 824.933594 113.449219 C 793.855469 110.785156 789.929688 129.082031 789.929688 129.082031 C 789.929688 129.082031 814.515625 130.125 822.375 130.769531 C 845.113281 132.652344 854.824219 133.988281 854.824219 133.988281 "/><path style=" stroke:none;fill-rule:nonzero;fill:#d7c33b;fill-opacity:1;" d="M 756.746094 128.214844 C 756.746094 128.214844 756.679688 104.394531 721.070312 104.476562 C 685.492188 104.558594 685.589844 128.449219 685.589844 128.449219 C 685.589844 128.449219 705.300781 128.140625 724.304688 127.941406 C 747.132812 127.699219 756.746094 128.214844 756.746094 128.214844 "/><path style=" stroke:none;fill-rule:nonzero;fill:#616e84;fill-opacity:1;" d="M 576.996094 271.863281 C 576.996094 271.863281 580.953125 269.351562 589.488281 265.894531 C 591.121094 265.238281 440.789062 190.003906 442.765625 189.289062 C 443.910156 188.871094 597.257812 262.992188 598.519531 262.558594 C 605.722656 260.113281 614.828125 257.492188 625.996094 255.09375 C 629.589844 254.324219 579.132812 168.621094 583.148438 167.90625 C 586.648438 167.292969 644.558594 251.667969 648.382812 251.117188 C 662.308594 249.105469 678.464844 247.582031 697.023438 246.972656 C 702.148438 246.800781 707.113281 160.542969 712.609375 160.523438 C 717.597656 160.503906 722.808594 246.695312 727.53125 246.792969 C 745.726562 247.171875 761.910156 248.378906 776.15625 250.0625 C 781.152344 250.652344 839.046875 162.933594 843.574219 163.628906 C 848.496094 164.382812 800.007812 253.554688 804.378906 254.394531 C 817.542969 256.929688 826.285156 259.160156 834.535156 261.742188 C 836.109375 262.234375 995.945312 185.011719 997.347656 185.484375 C 998.988281 186.035156 844.070312 264.859375 845.460938 265.367188 C 854.019531 268.484375 858.167969 270.722656 858.167969 270.722656 C 858.167969 270.722656 817.988281 256.75 713.015625 257.175781 C 622.460938 257.546875 576.996094 271.863281 576.996094 271.863281 "/><path style=" stroke:none;fill-rule:nonzero;fill:#97aac4;fill-opacity:1;" d="M 709.570312 84.34375 L 723.097656 40.25 L 735.292969 83.820312 Z M 709.570312 84.34375 "/><g clip-rule="nonzero" clip-path="url(#15ee96b51a)"><path style=" stroke:none;fill-rule:nonzero;fill:#abb8cc;fill-opacity:1;" d="M 716.128906 39.605469 C 716.117188 36.183594 719.238281 33.398438 723.109375 33.382812 C 726.972656 33.371094 730.125 36.128906 730.136719 39.550781 C 730.152344 42.96875 727.03125 45.75 723.160156 45.769531 C 719.292969 45.785156 716.144531 43.023438 716.128906 39.605469 "/></g><path style=" stroke:none;fill-rule:nonzero;fill:#d7cc83;fill-opacity:1;" d="M 802.539062 286.0625 C 802.539062 289.46875 765.519531 292.230469 719.851562 292.230469 C 674.183594 292.230469 637.167969 289.46875 637.167969 286.0625 C 637.167969 282.652344 674.183594 279.890625 719.851562 279.890625 C 765.519531 279.890625 802.539062 282.652344 802.539062 286.0625 "/><g clip-rule="nonzero" clip-path="url(#8df6c60498)"><path style=" stroke:none;fill-rule:nonzero;fill:#fdf1b5;fill-opacity:1;" d="M 720.027344 776.65625 C 581.15625 776.65625 468.585938 744.277344 468.585938 726.808594 L 469.757812 723.738281 L 633.386719 295.933594 C 652.769531 300.441406 677.785156 303.78125 709.410156 303.78125 C 714.007812 303.78125 718.738281 303.710938 723.613281 303.5625 C 757.421875 302.542969 782.332031 301.488281 806.253906 294.894531 L 970.277344 723.738281 L 971.453125 726.808594 C 971.453125 744.277344 858.878906 776.65625 720.027344 776.65625 "/></g><path style=" stroke:none;fill-rule:nonzero;fill:#e0d7a0;fill-opacity:1;" d="M 709.410156 303.78125 C 677.785156 303.78125 652.769531 300.441406 633.386719 295.933594 L 637.167969 286.058594 C 637.167969 286.058594 637.167969 286.058594 637.167969 286.0625 C 637.167969 289.46875 674.183594 292.230469 719.851562 292.230469 C 765.519531 292.230469 802.539062 289.46875 802.539062 286.0625 C 802.539062 286.058594 802.539062 286.058594 802.539062 286.058594 L 802.867188 286.058594 L 806.253906 294.894531 C 782.332031 301.488281 757.421875 302.542969 723.613281 303.5625 C 718.738281 303.710938 714.007812 303.78125 709.410156 303.78125 "/><path style=" stroke:none;fill-rule:nonzero;fill:#f5e69c;fill-opacity:1;" d="M 719.851562 292.230469 C 674.183594 292.230469 637.167969 289.46875 637.167969 286.0625 C 637.167969 286.058594 637.167969 286.058594 637.167969 286.058594 L 802.539062 286.058594 C 802.539062 286.058594 802.539062 286.058594 802.539062 286.0625 C 802.539062 289.46875 765.519531 292.230469 719.851562 292.230469 "/></g></svg>